<?xml version="1.0" encoding="iso-8859-1"?>
<!-- Generator: Adobe Illustrator 19.0.0, SVG Export Plug-In . SVG Version: 6.00 Build 0)  -->
<svg 
  xmlns="http://www.w3.org/2000/svg" 
  xmlns:xlink="http://www.w3.org/1999/xlink" version="1.1" id="Layer_1" x="0px" y="0px" viewBox="0 0 396.821 396.821" style="enable-background:new 0 0 396.821 396.821;" xml:space="preserve" width="128px" height="128px">
  <rect fill="#111111" stroke-linejoin="round" stroke-dashoffset="" fill-rule="nonzero" id="svg_30" x="350.9615478515625" y="13.65384578704834" width="37" height="28.653846740722656" style="color: rgb(17, 17, 17);" class=""/>
  <path fill="#111111" fill-opacity="1" stroke="none" stroke-opacity="1" stroke-width="1" stroke-dasharray="none" stroke-linejoin="round" stroke-linecap="butt" stroke-dashoffset="" fill-rule="nonzero" opacity="1" marker-start="" marker-mid="" marker-end="" d="M316.1073719041493,49.0415325182164 C316.1073719041493,24.085725772866365 330.47650448680326,3.8715223091328426 348.2161743419316,3.8715223091328426 C365.95584419705995,3.8715223091328426 380.3249767797139,24.085725772866365 380.3249767797139,49.0415325182164 C380.3249767797139,73.99733926356643 365.95584419705995,94.21154272729996 348.2161743419316,94.21154272729996 C330.47650448680326,94.21154272729996 316.1073719041493,73.99733926356643 316.1073719041493,49.0415325182164 z" id="svg_36" class="" transform="rotate(-43.449344635009766 348.2161865234375,49.04153442382809) "/>
  <rect fill="#111111" stroke-linejoin="round" stroke-dashoffset="" fill-rule="nonzero" id="svg_35" x="315.3461608886719" y="86.10839080810547" width="56.38461685180664" height="41.00699234008789" style="color: rgb(17, 17, 17);" class=""/>
  <rect fill="#111111" stroke-linejoin="round" stroke-dashoffset="" fill-rule="nonzero" x="272.8461608886719" y="22.454547882080078" width="40.03845977783203" height="29.468530654907227" style="color: rgb(17, 17, 17);" class="" id="svg_42"/>
  <rect fill="#111111" stroke-linejoin="round" stroke-dashoffset="" fill-rule="nonzero" id="svg_31" x="121.69230651855469" y="120.19230651855469" width="33" height="21" style="color: rgb(17, 17, 17);" class=""/>
  <rect fill="#111111" stroke-linejoin="round" stroke-dashoffset="" fill-rule="nonzero" id="svg_33" x="98.53845977783203" y="119.4230728149414" width="38.80769729614258" height="26.538463592529297" style="color: rgb(17, 17, 17);" class=""/>
  <rect fill="#111111" stroke="none" stroke-width="1" stroke-linejoin="round" stroke-dashoffset="" fill-rule="nonzero" id="svg_28" x="70.7024154663086" y="121.36458587646484" width="307.5847473144531" height="110.55229187011719" style="color: rgb(0, 0, 0);" class="" transform="rotate(-44.37871551513672 224.4947814941406,176.64073181152344) " fill-opacity="1"/>
  <rect fill="#111111" stroke="none" stroke-width="1" stroke-linejoin="round" stroke-dashoffset="" fill-rule="nonzero" x="54.82592010498047" y="111.38105773925781" width="259.7078857421875" height="26.926631927490234" style="color: rgb(0, 0, 0);" class="" transform="rotate(-44.37871551513672 184.67987060546878,124.8443756103516) " fill-opacity="1" id="svg_37"/>
  <rect fill="#111111" stroke="none" stroke-width="1" stroke-linejoin="round" stroke-dashoffset="" fill-rule="nonzero" x="136.3643798828125" y="196.7656707763672" width="259.7078857421875" height="26.926631927490234" style="color: rgb(0, 0, 0);" class="" transform="rotate(-44.37871551513672 266.21832275390636,210.22898864746102) " fill-opacity="1" id="svg_38"/>
  <rect fill="#111111" stroke="none" stroke-width="1" stroke-linejoin="round" stroke-dashoffset="" fill-rule="nonzero" x="32.5068244934082" y="156.0742645263672" width="90.63007354736328" height="21.350204467773438" style="color: rgb(0, 0, 0);" class="" transform="rotate(-44.37871551513672 77.82186126708996,166.7493591308594) " fill-opacity="1" id="svg_34"/>
  <rect fill="#111111" stroke="none" stroke-width="1" stroke-linejoin="round" stroke-dashoffset="" fill-rule="nonzero" x="54.429901123046875" y="157.80502319335938" width="90.63007354736328" height="21.350204467773438" style="color: rgb(0, 0, 0);" class="" transform="rotate(-44.37871551513672 99.74494171142578,168.48013305664062) " fill-opacity="1" id="svg_29"/>
  <rect fill="#111111" stroke="none" stroke-width="1" stroke-linejoin="round" stroke-dashoffset="" fill-rule="nonzero" x="183.08374786376953" y="283.5742492675781" width="90.63007354736328" height="21.350204467773438" style="color: rgb(0, 0, 0);" class="" transform="rotate(-44.37871551513672 228.39878845214847,294.2493591308594) " fill-opacity="1" id="svg_40"/>
  <rect fill="#111111" stroke="none" stroke-width="1" stroke-linejoin="round" stroke-dashoffset="" fill-rule="nonzero" x="183.85297966003418" y="307.4204030036926" width="90.63007354736328" height="21.350204467773438" style="color: rgb(0, 0, 0);" class="" transform="rotate(-44.37871551513672 229.16801452636727,318.0955200195313) " fill-opacity="1" id="svg_41"/>
  <rect fill="#111111" stroke="none" stroke-width="1" stroke-linejoin="round" stroke-dashoffset="" fill-rule="nonzero" x="224.87600772770884" y="252.5899577924598" width="77.23793592366837" height="18.895741125973473" style="color: rgb(0, 0, 0);" class="" transform="rotate(-87.88360595703125 263.49496459960943,262.03784179687506) " fill-opacity="1" id="svg_43"/>
  <rect fill="#111111" stroke="#ffffff" stroke-width="0" stroke-linejoin="round" stroke-dashoffset="" fill-rule="nonzero" id="svg_32" x="195" y="327" width="22" height="10" style="color: rgb(0, 0, 0);" class="selected" stroke-opacity="1" fill-opacity="1"/>
  <path d="M394.583,8.054c-0.422-3.413-3.11-6.101-6.522-6.523c-30.748-3.803-62.477-0.488-91.767,9.583     c-29.293,10.072-56.355,26.973-78.258,48.876l-49.983,49.983l-72.149,9.305c-1.645,0.212-3.172,0.963-4.345,2.135l-69.563,69.563     c-1.969,1.969-2.685,4.868-1.858,7.528c0.825,2.66,3.058,4.643,5.796,5.15l52.597,9.742l10.335,10.335l-22.003,11.915     c-2.082,1.127-3.51,3.172-3.851,5.515s0.444,4.709,2.118,6.383l83.438,83.438c1.417,1.417,3.329,2.197,5.304,2.197     c0.358,0,0.72-0.026,1.08-0.078c2.343-0.341,4.388-1.769,5.515-3.851l11.916-22.003l10.335,10.335l9.742,52.597     c0.508,2.739,2.49,4.971,5.15,5.797c0.731,0.227,1.48,0.337,2.224,0.337c1.96,0,3.876-0.769,5.305-2.197l69.563-69.563     c1.172-1.172,1.923-2.7,2.135-4.344l9.306-72.15l49.983-49.984c21.903-21.903,38.804-48.964,48.876-78.257     C395.072,70.528,398.385,38.795,394.583,8.054z M79.674,198.355l-36.989-6.851l57.673-57.675l50.332-6.491L79.674,198.355z      M152.065,313.268L82.846,244.05l17.085-9.252l61.385,61.386L152.065,313.268z M262.285,295.756l-57.674,57.674l-6.852-36.988     l71.017-71.017L262.285,295.756z M325.517,167.471l-135.85,135.85l-96.874-96.874l135.85-135.851     c19.738-19.739,44.002-35.076,70.287-44.49c3.395,17.492,11.948,33.719,24.654,46.424c12.705,12.706,28.931,21.259,46.424,24.655     C360.593,123.468,345.255,147.732,325.517,167.471z M374.523,82.774c-15.203-2.593-29.345-9.863-40.333-20.85     c-10.988-10.987-18.257-25.13-20.85-40.333c21.741-5.859,44.579-7.857,66.99-5.807C382.381,38.195,380.382,61.033,374.523,82.774     z" fill="#007acc"/>
  <path d="M 127.24219 38.037109 L 67.521484 97.070312 L 31.566406 69.992188 L 16.748047 74.941406 L 53.328125 111.10156 L 16.748047 147.25977 L 31.566406 152.21094 L 67.521484 125.13086 L 67.523438 125.13086 L 127.24023 184.16016 L 163.00781 168.96289 L 163.00781 53.234375 L 127.24219 38.037109 z M 127.24023 80.158203 L 127.24023 142.03711 L 86.154297 111.09766 L 127.24023 80.158203 z " id="path887" style="fill:#007acc;fill-opacity:1" transform="translate(112, 150) rotate(-45) scale(0.85)"/>
  <path d="M98.365,299.165c-2.93-2.929-7.678-2.929-10.607,0L23.41,363.512c-2.929,2.929-2.929,7.678,0,10.606     c1.465,1.464,3.385,2.197,5.304,2.197s3.839-0.732,5.304-2.197l64.347-64.347C101.293,306.843,101.293,302.094,98.365,299.165z" fill="#007acc"/>
  <path d="M108.263,319.671l-28.991,28.991c-2.929,2.929-2.929,7.678,0,10.606c1.465,1.464,3.385,2.197,5.304,2.197     s3.839-0.732,5.304-2.197l28.991-28.991c2.929-2.929,2.929-7.678,0-10.606C115.941,316.742,111.193,316.742,108.263,319.671z" fill="#007acc"/>
  <path d="M69.123,361.919c-3.138,0-6.002,2.024-7.062,4.973c-1.078,2.998-0.075,6.441,2.416,8.416     c2.547,2.02,6.266,2.13,8.928,0.265c2.84-1.99,3.992-5.81,2.639-9.024C74.931,363.774,72.099,361.919,69.123,361.919z" fill="#007acc"/>
  <path d="M76.044,366.549C76.234,367,75.864,366.099,76.044,366.549L76.044,366.549z" fill="#007acc"/>
  <path d="M47.91,380.025l-3.992,3.992c-2.93,2.929-2.93,7.678-0.001,10.607c1.465,1.464,3.384,2.197,5.304,2.197     c1.919,0,3.839-0.732,5.303-2.196l3.992-3.992c2.93-2.929,2.93-7.678,0.001-10.606C55.588,377.099,50.838,377.096,47.91,380.025z     " fill="#007acc"/>
  <path d="M42.502,314.014c-2.93-2.929-7.678-2.929-10.607,0L2.904,343.005c-2.929,2.929-2.929,7.678,0,10.606     c1.465,1.464,3.385,2.197,5.304,2.197s3.839-0.732,5.304-2.197l28.991-28.991C45.431,321.692,45.431,316.943,42.502,314.014z" fill="#007acc"/>
  <path d="M54.472,311.136c3.043-0.765,5.327-3.417,5.644-6.537c0.311-3.055-1.369-6.049-4.096-7.427     c-2.895-1.464-6.523-0.853-8.769,1.494c-2.405,2.513-2.752,6.426-0.852,9.335c-0.06-0.09-0.106-0.156,0.015,0.029     c0.126,0.185,0.083,0.118,0.023,0.029C48.204,310.626,51.429,311.901,54.472,311.136z" fill="#007acc"/>
  <path d="M73.867,293.257l3.991-3.992c2.929-2.929,2.929-7.678-0.001-10.606c-2.932-2.93-7.681-2.929-10.606,0.001l-3.991,3.992     c-2.929,2.929-2.929,7.678,0.001,10.606c1.465,1.464,3.384,2.196,5.303,2.196C70.483,295.454,72.403,294.722,73.867,293.257z" fill="#007acc"/>
</svg>